<svg height='300px' width='300px'  fill="#000000" xmlns="http://www.w3.org/2000/svg" xmlns:xlink="http://www.w3.org/1999/xlink" version="1.1" x="0px" y="0px" viewBox="0 0 100 100" enable-background="new 0 0 100 100" xml:space="preserve"><g><g><polygon fill="none" stroke="#000000" stroke-width="6" stroke-linecap="round" stroke-linejoin="round" stroke-miterlimit="10" points="    89.683,79.699 48.608,38.624 43.204,44.028 83.838,84.663   "></polygon></g><g><path fill="none" stroke="#000000" stroke-width="6" stroke-linecap="round" stroke-linejoin="round" stroke-miterlimit="10" d="    M48.828,38.844c0,0,1.122,0.098,5.923-1.294c4.801-1.392,1.297-5.821,1.297-5.821S44.516,19.823,41.534,17.053    s-4.022-1.862-4.767,0.428c-0.745,2.289-2.284,7.018-2.284,7.018l-5.404,5.404l-18.152,1.642c0,0-3.375,14.487,5.75,23.487    c8.623,8.505,22.125,5,22.125,5l4.182-16.224L48.828,38.844z"></path></g><path fill="none" stroke="#000000" stroke-width="6" stroke-linecap="round" stroke-linejoin="round" stroke-miterlimit="10" d="   M43.204,34.154"></path><line fill="none" stroke="#000000" stroke-width="6" stroke-linecap="round" stroke-linejoin="round" stroke-miterlimit="10" x1="28.652" y1="29.508" x2="34.913" y2="35.769"></line></g></svg>