<svg height='300px' width='300px'  fill="#000000" xmlns="http://www.w3.org/2000/svg" xmlns:xlink="http://www.w3.org/1999/xlink" version="1.1" x="0px" y="0px" viewBox="0 0 100 100" enable-background="new 0 0 100 100" xml:space="preserve"><path fill="#000000" d="M79.3,42.9h-4.9c-0.5-1.8-1.2-3.5-2.1-5.1l3.5-3.5c0.4-0.4,0.6-0.9,0.6-1.4s-0.2-1-0.6-1.4l-7.2-7.2  c-0.8-0.8-2.1-0.8-2.8,0l-3.5,3.5c-1.6-0.9-3.4-1.6-5.1-2.1v-4.9c0-1.1-0.9-2-2-2H44.9c-1.1,0-2,0.9-2,2v4.9  c-1.8,0.5-3.5,1.2-5.1,2.1l-3.5-3.5c-0.4-0.4-0.9-0.6-1.4-0.6s-1,0.2-1.4,0.6l-7.2,7.2c-0.4,0.4-0.6,0.9-0.6,1.4s0.2,1,0.6,1.4  l3.5,3.5c-0.9,1.6-1.6,3.4-2.1,5.1h-4.9c-1.1,0-2,0.9-2,2v10.1c0,1.1,0.9,2,2,2h4.9c0.5,1.8,1.2,3.5,2.1,5.1l-3.5,3.5  c-0.4,0.4-0.6,0.9-0.6,1.4s0.2,1,0.6,1.4l7.2,7.2c0.8,0.8,2.1,0.8,2.8,0l3.5-3.5c1.6,0.9,3.4,1.6,5.1,2.1v4.9c0,1.1,0.9,2,2,2h10.1  c1.1,0,2-0.9,2-2v-4.9c1.8-0.5,3.5-1.2,5.1-2.1l3.5,3.5c0.4,0.4,0.9,0.6,1.4,0.6s1-0.2,1.4-0.6l7.2-7.2c0.4-0.4,0.6-0.9,0.6-1.4  s-0.2-1-0.6-1.4l-3.5-3.5c0.9-1.6,1.6-3.4,2.1-5.1h4.9c1.1,0,2-0.9,2-2V44.9C81.3,43.8,80.4,42.9,79.3,42.9z M77.3,53.1h-4.5  c-0.9,0-1.8,0.7-2,1.6c-0.5,2.4-1.5,4.7-2.8,6.8c-0.5,0.8-0.4,1.8,0.3,2.5l3.2,3.2l-4.3,4.3l-3.2-3.2c-0.7-0.7-1.7-0.8-2.5-0.3  c-2.1,1.3-4.4,2.3-6.8,2.8c-0.9,0.2-1.6,1-1.6,2v4.5h-6.1v-4.5c0-0.9-0.7-1.8-1.6-2c-2.4-0.5-4.7-1.5-6.8-2.8  c-0.8-0.5-1.8-0.4-2.5,0.3l-3.2,3.2l-4.3-4.3l3.2-3.2c0.7-0.7,0.8-1.7,0.3-2.5c-1.3-2.1-2.3-4.4-2.8-6.8c-0.2-0.9-1-1.6-2-1.6h-4.5  v-6.1h4.5c0.9,0,1.8-0.7,2-1.6c0.5-2.4,1.5-4.7,2.8-6.8c0.5-0.8,0.4-1.8-0.3-2.5l-3.2-3.2l4.3-4.3l3.2,3.2c0.7,0.7,1.7,0.8,2.5,0.3  c2.1-1.3,4.4-2.3,6.8-2.8c0.9-0.2,1.6-1,1.6-2v-4.5h6.1v4.5c0,0.9,0.7,1.8,1.6,2c2.4,0.5,4.7,1.5,6.8,2.8c0.8,0.5,1.8,0.4,2.5-0.3  l3.2-3.2l4.3,4.3l-3.2,3.2c-0.7,0.7-0.8,1.7-0.3,2.5c1.3,2.1,2.3,4.4,2.8,6.8c0.2,0.9,1,1.6,2,1.6h4.5V53.1z"></path><path fill="#000000" d="M50,37.1c-7.1,0-12.9,5.8-12.9,12.9S42.9,62.9,50,62.9S62.9,57.1,62.9,50S57.1,37.1,50,37.1z M50,58.9  c-4.9,0-8.9-4-8.9-8.9s4-8.9,8.9-8.9s8.9,4,8.9,8.9S54.9,58.9,50,58.9z"></path></svg>