<svg height='300px' width='300px'  fill="#000000" xmlns="http://www.w3.org/2000/svg" data-name="Layer 1" viewBox="0 0 80 80" x="0px" y="0px"><title>minecraft-block-build</title><path d="M69.85,19.3,43,3.8a6,6,0,0,0-6,0L10.15,19.3a6,6,0,0,0-3,5.2V34a2,2,0,0,0,4,0V25.66l11.32,6.53a5.09,5.09,0,0,0,0,.55V45.52L10.15,38.44a2,2,0,0,0-3,1.73V55.5a6,6,0,0,0,3,5.2L37,76.2a6,6,0,0,0,6,0L69.85,60.7a6,6,0,0,0,3-5.2v-31A6,6,0,0,0,69.85,19.3ZM22.43,63.17,12.15,57.23a2,2,0,0,1-1-1.73V43.63l11.28,6.51ZM39,7.27a2,2,0,0,1,2,0L51.28,13.2,40,19.71,28.72,13.2ZM24.47,28.72,13.15,22.19l11.57-6.68L36,22,24.93,28.41ZM38,25.49V38.87L26.43,45.53V32.74a1,1,0,0,1,.5-.86Zm0,46.66L26.43,65.48v-13L37.5,58.84a3.33,3.33,0,0,0,.5.25Zm1.5-16.77L28.44,49,40,42.33,51.56,49,40.5,55.38A1,1,0,0,1,39.5,55.38Zm14.07,10.1L42,72.15V59.09a3.33,3.33,0,0,0,.5-.25l11.07-6.39Zm0-20L42,38.87V25.49l11.07,6.39a1,1,0,0,1,.5.86Zm1.5-17.12L44,22l11.28-6.51,11.57,6.68L55.53,28.72ZM68.85,55.5a2,2,0,0,1-1,1.73L57.57,63.17v-13l8.25-4.76a2,2,0,1,0-2-3.47l-6.25,3.61V32.74a5.09,5.09,0,0,0,0-.55l11.32-6.53Z"></path></svg>