<svg height='300px' width='300px'  fill="#000000" xmlns="http://www.w3.org/2000/svg" xmlns:xlink="http://www.w3.org/1999/xlink" version="1.1" x="0px" y="0px" viewBox="0 0 100 100" enable-background="new 0 0 100 100" xml:space="preserve"><path d="M84.267,73.664l-37.61-37.611c13.616-12.724,23.23-17.65,23.23-17.65c-4.153-1.428-8.604-2.213-13.242-2.213  c-8.467,0-16.33,2.585-22.845,7.006l-4.686-4.686c-0.839-0.838-1.954-1.299-3.139-1.299c-1.186,0-2.3,0.461-3.14,1.3l-4.605,4.605  c-1.729,1.731-1.729,4.547,0.001,6.278l4.685,4.685c0.001-0.001,0.002-0.002,0.003-0.004c-4.423,6.516-7.009,14.38-7.009,22.849  c0,4.638,0.786,9.089,2.213,13.242c0,0,6.024-10.222,17.736-23.144l0,0l37.525,37.525c0.839,0.838,1.954,1.299,3.139,1.299  c1.186,0,2.3-0.461,3.14-1.3l4.605-4.605C85.998,78.211,85.998,75.396,84.267,73.664z M25.975,23.856l3.094,3.094  c-0.833,0.766-1.632,1.566-2.398,2.398l-3.094-3.093L25.975,23.856z M53.416,22.339c-4.407,3.452-9.654,7.972-15.413,13.73  c-6.638,6.638-11.972,12.932-15.985,18.097C23.344,37.364,36.677,23.889,53.416,22.339z M76.523,79.202L39.961,42.64  c0.745-0.771,1.502-1.546,2.284-2.328c0.031-0.031,0.062-0.061,0.093-0.092l36.583,36.583L76.523,79.202z"></path></svg>