<svg height='300px' width='300px'  fill="#000000" xmlns="http://www.w3.org/2000/svg" xmlns:xlink="http://www.w3.org/1999/xlink" version="1.1" x="0px" y="0px" viewBox="0 0 100 100" enable-background="new 0 0 100 100" xml:space="preserve"><g><polygon fill="none" stroke="#000000" stroke-width="6" stroke-linecap="round" stroke-linejoin="round" stroke-miterlimit="10" points="   50.327,88.302 15,70.746 15,30.137 50.327,47.693 85,29.254 85,69.863  "></polygon><polygon fill="none" stroke="#000000" stroke-width="6" stroke-linecap="round" stroke-linejoin="round" stroke-miterlimit="10" points="   50.327,47.693 15,30.137 50,11.698 85,29.254  "></polygon><line fill="none" stroke="#000000" stroke-width="6" stroke-linecap="round" stroke-linejoin="round" stroke-miterlimit="10" x1="50.327" y1="88.302" x2="50.327" y2="47.693"></line><polygon fill="none" stroke="#000000" stroke-width="6" stroke-linecap="round" stroke-linejoin="round" stroke-miterlimit="10" points="   50.149,37.885 34.074,29.896 50,21.506 65.926,29.494  "></polygon></g><line fill="none" stroke="#000000" stroke-width="6" stroke-linecap="round" stroke-linejoin="round" stroke-miterlimit="10" x1="22.5" y1="34.333" x2="22.5" y2="63.667"></line><line fill="none" stroke="#000000" stroke-width="6" stroke-linecap="round" stroke-linejoin="round" stroke-miterlimit="10" x1="31" y1="55.075" x2="31" y2="76.911"></line><line fill="none" stroke="#000000" stroke-width="6" stroke-linecap="round" stroke-linejoin="round" stroke-miterlimit="10" x1="31" y1="38.548" x2="31" y2="46.297"></line><line fill="none" stroke="#000000" stroke-width="6" stroke-linecap="round" stroke-linejoin="round" stroke-miterlimit="10" x1="41" y1="72.085" x2="41" y2="81.736"></line><line fill="none" stroke="#000000" stroke-width="6" stroke-linecap="round" stroke-linejoin="round" stroke-miterlimit="10" x1="41" y1="43.374" x2="41" y2="63.307"></line><line fill="none" stroke="#000000" stroke-width="6" stroke-linecap="round" stroke-linejoin="round" stroke-miterlimit="10" x1="77.333" y1="34.333" x2="77.333" y2="63.667"></line><line fill="none" stroke="#000000" stroke-width="6" stroke-linecap="round" stroke-linejoin="round" stroke-miterlimit="10" x1="68.833" y1="55.075" x2="68.833" y2="76.911"></line><line fill="none" stroke="#000000" stroke-width="6" stroke-linecap="round" stroke-linejoin="round" stroke-miterlimit="10" x1="68.833" y1="38.548" x2="68.833" y2="46.297"></line><line fill="none" stroke="#000000" stroke-width="6" stroke-linecap="round" stroke-linejoin="round" stroke-miterlimit="10" x1="58.833" y1="72.085" x2="58.833" y2="81.736"></line><line fill="none" stroke="#000000" stroke-width="6" stroke-linecap="round" stroke-linejoin="round" stroke-miterlimit="10" x1="58.833" y1="43.374" x2="58.833" y2="63.307"></line></svg>